<svg xmlns="http://www.w3.org/2000/svg" viewBox="0 0 24.4 24.4"><defs><style>.cls-1,.cls-4{fill:#c09328;stroke:#c09328;}.cls-1,.cls-2,.cls-3,.cls-4,.cls-5{stroke-linecap:round;stroke-linejoin:round;}.cls-1{stroke-width:0.4px;}.cls-2{fill-opacity:0;stroke:#000;stroke-opacity:0;}.cls-2,.cls-3,.cls-4,.cls-5{stroke-width:0.05px;}.cls-3{fill:#fff;stroke:#fff;}.cls-5{fill:#fefefe;stroke:#fefefe;}</style></defs><title>mostaza</title><g id="Capa_2" data-name="Capa 2"><g id="svg4209"><g id="layer1"><g id="g5086"><g id="g5075"><path id="path3230-0-5-2" class="cls-1" d="M24.2,12.2a12,12,0,1,1-12-12A12,12,0,0,1,24.2,12.2Z"/><g id="g5066"><path id="path4377" class="cls-2" d="M10.69,5.48l4.44,4.44L20.8,4.2,19.72,3.13l-1.4-1.07-1.23-.71L16.25.94,15.44.73Z"/><g id="g4371"><g id="g4365"><path id="path4361" class="cls-3" d="M19.09,18.89a3,3,0,0,0-.19-.5l-.29-.27-.49-.33-.6-.23-.84-.24L16,17.2,15,17.12l-.57,0-.71.25L13,17.7l-.62.11-1,0-.74-.09-.78-.13-.76-.11-.66-.05-.8-.09-.77,0-.08-.22-.1-.49.05-.36.09-.13.54-.34.51-.47.23-.34,0-.47,0-.45L8,13.8l-.11-.29v-.28l.2-.2.33-.13.32-.18L9,12.47l.22-.35.11-.36.13-.23,0-.2-.25-.23H8.93l-.18.1-.14.31-.13.34-.14.24L8,12.25l-.39.16-.27.29-.18.36,0,.38.11.45.09.46.07.34-.07.2L7,15.14l-.27.22-.31.21-.21.18L6,16.08l-.11.49,0,.52.08.29,0,.27-.41.16-.42.33L5,18.46l-.1.45.12.49.42.47.63.58.61.34.78.29.74.16,1.17.13,1.27.07,1.46.12,1.3,0,1.26-.11,1-.18L16.6,21l1-.42.72-.41.53-.49.25-.4,0-.37"/><path id="path4363" class="cls-4" d="M15.47,20.36l.49-.09.37-.1.48-.2.32-.17.24-.15.2-.15.22-.2.17-.23.13-.27.05-.22v-.22l.1.13.07.17,0,.14,0,.17,0,.12-.06.13-.1.15-.1.12-.18.14-.2.15-.2.14-.27.17-.16.09-.19.09-.2.06-.21.07-.19,0H16l-.21,0h-.14Z"/></g><path id="path4369" class="cls-5" d="M9.91,10.48l1.43-2.17L10.22,7.23,11,6.46l3.18,3.17-.77.77L12.27,9.28l-2.08,1.45Z"/></g><path id="path4406" class="cls-3" d="M10.71,5.46,15.21,10,21.1,4a6.38,6.38,0,0,0-1.59-1.41,5.09,5.09,0,0,0-1.09-.74A2.79,2.79,0,0,0,17,1c-.16-.21-.77-.28-1.41-.45Z"/></g></g></g></g></g></g></svg>